<mxfile host="app.diagrams.net" modified="2024-03-19T07:24:41.661Z" agent="Mozilla/5.0 (Macintosh; Intel Mac OS X 10_15_7) AppleWebKit/537.36 (KHTML, like Gecko) Chrome/122.0.0.0 Safari/537.36" etag="SfuE1i6GTCVklSbbrlX3" version="24.0.2" type="github">
  <diagram id="prtHgNgQTEPvFCAcTncT" name="Page-1">
    <mxGraphModel dx="4016" dy="1956" grid="1" gridSize="10" guides="1" tooltips="1" connect="1" arrows="1" fold="1" page="1" pageScale="1" pageWidth="827" pageHeight="1169" math="0" shadow="0">
      <root>
        <mxCell id="0" />
        <mxCell id="1" parent="0" />
        <mxCell id="dNxyNK7c78bLwvsdeMH5-11" value="cs portal (vue版本)" style="swimlane;html=1;startSize=20;horizontal=1;containerType=tree;glass=0;fillColor=#fff2cc;strokeColor=#d6b656;" parent="1" vertex="1">
          <mxGeometry x="-30" y="80" width="1120" height="710" as="geometry" />
        </mxCell>
        <mxCell id="jRqLzhwtPZofuVLJQuj5-102" style="edgeStyle=orthogonalEdgeStyle;rounded=0;orthogonalLoop=1;jettySize=auto;html=1;exitX=0.5;exitY=1;exitDx=0;exitDy=0;entryX=0.5;entryY=0;entryDx=0;entryDy=0;" parent="dNxyNK7c78bLwvsdeMH5-11" source="jRqLzhwtPZofuVLJQuj5-103" edge="1">
          <mxGeometry relative="1" as="geometry">
            <mxPoint x="890" y="190" as="targetPoint" />
          </mxGeometry>
        </mxCell>
        <UserObject label="order detail 页面" name="Tessa Miller" position="CFO" location="Office 1" email="me@example.com" placeholders="1" link="https://www.draw.io" id="jRqLzhwtPZofuVLJQuj5-103">
          <mxCell style="label;image=https://cdn3.iconfinder.com/data/icons/user-avatars-1/512/users-3-128.png;whiteSpace=wrap;html=1;rounded=0;glass=0;treeMoving=1;treeFolding=1;" parent="dNxyNK7c78bLwvsdeMH5-11" vertex="1">
            <mxGeometry x="454" y="50" width="180" height="90" as="geometry" />
          </mxCell>
        </UserObject>
        <mxCell id="jRqLzhwtPZofuVLJQuj5-104" value="" style="endArrow=blockThin;endFill=1;fontSize=11;edgeStyle=elbowEdgeStyle;elbow=vertical;rounded=0;" parent="dNxyNK7c78bLwvsdeMH5-11" source="jRqLzhwtPZofuVLJQuj5-103" target="jRqLzhwtPZofuVLJQuj5-105" edge="1">
          <mxGeometry relative="1" as="geometry" />
        </mxCell>
        <UserObject label="general info" name="Edward Morrison" position="Brand Manager" location="Office 2" email="me@example.com" placeholders="1" link="https://www.draw.io" id="jRqLzhwtPZofuVLJQuj5-105">
          <mxCell style="label;image=https://cdn3.iconfinder.com/data/icons/user-avatars-1/512/users-10-3-128.png;whiteSpace=wrap;html=1;rounded=0;glass=0;treeFolding=1;treeMoving=1;dashed=1;dashPattern=12 12;" parent="dNxyNK7c78bLwvsdeMH5-11" vertex="1">
            <mxGeometry x="120" y="190" width="180" height="80" as="geometry" />
          </mxCell>
        </UserObject>
        <mxCell id="jRqLzhwtPZofuVLJQuj5-106" value="" style="endArrow=blockThin;endFill=1;fontSize=11;edgeStyle=elbowEdgeStyle;elbow=vertical;rounded=0;" parent="dNxyNK7c78bLwvsdeMH5-11" source="jRqLzhwtPZofuVLJQuj5-103" target="jRqLzhwtPZofuVLJQuj5-107" edge="1">
          <mxGeometry relative="1" as="geometry" />
        </mxCell>
        <UserObject label="time line" name="Evan Valet" position="HR Director" location="Office 4" email="me@example.com" placeholders="1" link="https://www.draw.io" id="jRqLzhwtPZofuVLJQuj5-107">
          <mxCell style="label;image=https://cdn3.iconfinder.com/data/icons/user-avatars-1/512/users-9-2-128.png;whiteSpace=wrap;html=1;rounded=0;glass=0;treeFolding=1;treeMoving=1;dashed=1;dashPattern=12 12;" parent="dNxyNK7c78bLwvsdeMH5-11" vertex="1">
            <mxGeometry x="340" y="190" width="180" height="80" as="geometry" />
          </mxCell>
        </UserObject>
        <mxCell id="jRqLzhwtPZofuVLJQuj5-108" value="" style="endArrow=blockThin;endFill=1;fontSize=11;edgeStyle=elbowEdgeStyle;elbow=vertical;rounded=0;" parent="dNxyNK7c78bLwvsdeMH5-11" source="jRqLzhwtPZofuVLJQuj5-103" target="jRqLzhwtPZofuVLJQuj5-109" edge="1">
          <mxGeometry relative="1" as="geometry" />
        </mxCell>
        <UserObject label="buyer / seller info" name="Alison Donovan" position="System Admin" location="Office 3" email="me@example.com" placeholders="1" link="https://www.draw.io" id="jRqLzhwtPZofuVLJQuj5-109">
          <mxCell style="label;image=https://cdn3.iconfinder.com/data/icons/user-avatars-1/512/users-2-128.png;whiteSpace=wrap;html=1;rounded=0;glass=0;dashed=1;dashPattern=12 12;" parent="dNxyNK7c78bLwvsdeMH5-11" vertex="1">
            <mxGeometry x="570" y="190" width="180" height="80" as="geometry" />
          </mxCell>
        </UserObject>
        <mxCell id="jRqLzhwtPZofuVLJQuj5-111" value="" style="rounded=1;whiteSpace=wrap;html=1;strokeColor=none;" parent="dNxyNK7c78bLwvsdeMH5-11" vertex="1">
          <mxGeometry x="130" y="210" width="40" height="50" as="geometry" />
        </mxCell>
        <mxCell id="jRqLzhwtPZofuVLJQuj5-112" value="" style="rounded=1;whiteSpace=wrap;html=1;strokeColor=none;" parent="dNxyNK7c78bLwvsdeMH5-11" vertex="1">
          <mxGeometry x="350" y="210" width="40" height="50" as="geometry" />
        </mxCell>
        <mxCell id="jRqLzhwtPZofuVLJQuj5-113" value="" style="rounded=1;whiteSpace=wrap;html=1;strokeColor=none;" parent="dNxyNK7c78bLwvsdeMH5-11" vertex="1">
          <mxGeometry x="580" y="205" width="40" height="50" as="geometry" />
        </mxCell>
        <mxCell id="jRqLzhwtPZofuVLJQuj5-114" value="" style="rounded=1;whiteSpace=wrap;html=1;strokeColor=none;" parent="dNxyNK7c78bLwvsdeMH5-11" vertex="1">
          <mxGeometry x="810" y="210" width="40" height="50" as="geometry" />
        </mxCell>
        <mxCell id="jRqLzhwtPZofuVLJQuj5-115" value="" style="rounded=1;whiteSpace=wrap;html=1;strokeColor=none;" parent="dNxyNK7c78bLwvsdeMH5-11" vertex="1">
          <mxGeometry x="460" y="70" width="40" height="50" as="geometry" />
        </mxCell>
        <UserObject label="others" name="Alison Donovan" position="System Admin" location="Office 3" email="me@example.com" placeholders="1" link="https://www.draw.io" id="jRqLzhwtPZofuVLJQuj5-110">
          <mxCell style="label;image=https://cdn3.iconfinder.com/data/icons/user-avatars-1/512/users-2-128.png;whiteSpace=wrap;html=1;rounded=0;glass=0;movable=1;resizable=1;rotatable=1;deletable=1;editable=1;locked=0;connectable=1;" parent="dNxyNK7c78bLwvsdeMH5-11" vertex="1">
            <mxGeometry x="800" y="190" width="180" height="80" as="geometry" />
          </mxCell>
        </UserObject>
        <mxCell id="jRqLzhwtPZofuVLJQuj5-116" value="" style="rounded=1;whiteSpace=wrap;html=1;strokeColor=none;" parent="dNxyNK7c78bLwvsdeMH5-11" vertex="1">
          <mxGeometry x="810" y="205" width="40" height="50" as="geometry" />
        </mxCell>
        <mxCell id="jRqLzhwtPZofuVLJQuj5-26" value="cs portal (react版本)" style="swimlane;html=1;startSize=20;horizontal=1;containerType=tree;glass=0;fillColor=#f8cecc;strokeColor=#b85450;" parent="1" vertex="1">
          <mxGeometry x="40" y="440" width="941" height="290" as="geometry" />
        </mxCell>
        <mxCell id="jRqLzhwtPZofuVLJQuj5-27" style="edgeStyle=orthogonalEdgeStyle;rounded=0;orthogonalLoop=1;jettySize=auto;html=1;exitX=0.5;exitY=1;exitDx=0;exitDy=0;entryX=0.5;entryY=0;entryDx=0;entryDy=0;" parent="jRqLzhwtPZofuVLJQuj5-26" source="jRqLzhwtPZofuVLJQuj5-28" target="jRqLzhwtPZofuVLJQuj5-35" edge="1">
          <mxGeometry relative="1" as="geometry" />
        </mxCell>
        <UserObject label="order detail 页面" name="Tessa Miller" position="CFO" location="Office 1" email="me@example.com" placeholders="1" link="https://www.draw.io" id="jRqLzhwtPZofuVLJQuj5-28">
          <mxCell style="label;image=https://cdn3.iconfinder.com/data/icons/user-avatars-1/512/users-3-128.png;whiteSpace=wrap;html=1;rounded=0;glass=0;treeMoving=1;treeFolding=1;" parent="jRqLzhwtPZofuVLJQuj5-26" vertex="1">
            <mxGeometry x="374" y="40" width="180" height="90" as="geometry" />
          </mxCell>
        </UserObject>
        <mxCell id="jRqLzhwtPZofuVLJQuj5-29" value="" style="endArrow=blockThin;endFill=1;fontSize=11;edgeStyle=elbowEdgeStyle;elbow=vertical;rounded=0;" parent="jRqLzhwtPZofuVLJQuj5-26" source="jRqLzhwtPZofuVLJQuj5-28" target="jRqLzhwtPZofuVLJQuj5-30" edge="1">
          <mxGeometry relative="1" as="geometry" />
        </mxCell>
        <UserObject label="general info" name="Edward Morrison" position="Brand Manager" location="Office 2" email="me@example.com" placeholders="1" link="https://www.draw.io" id="jRqLzhwtPZofuVLJQuj5-30">
          <mxCell style="label;image=https://cdn3.iconfinder.com/data/icons/user-avatars-1/512/users-10-3-128.png;whiteSpace=wrap;html=1;rounded=0;glass=0;treeFolding=1;treeMoving=1;" parent="jRqLzhwtPZofuVLJQuj5-26" vertex="1">
            <mxGeometry x="40" y="180" width="180" height="80" as="geometry" />
          </mxCell>
        </UserObject>
        <mxCell id="jRqLzhwtPZofuVLJQuj5-31" value="" style="endArrow=blockThin;endFill=1;fontSize=11;edgeStyle=elbowEdgeStyle;elbow=vertical;rounded=0;" parent="jRqLzhwtPZofuVLJQuj5-26" source="jRqLzhwtPZofuVLJQuj5-28" target="jRqLzhwtPZofuVLJQuj5-32" edge="1">
          <mxGeometry relative="1" as="geometry" />
        </mxCell>
        <UserObject label="time line" name="Evan Valet" position="HR Director" location="Office 4" email="me@example.com" placeholders="1" link="https://www.draw.io" id="jRqLzhwtPZofuVLJQuj5-32">
          <mxCell style="label;image=https://cdn3.iconfinder.com/data/icons/user-avatars-1/512/users-9-2-128.png;whiteSpace=wrap;html=1;rounded=0;glass=0;treeFolding=1;treeMoving=1;" parent="jRqLzhwtPZofuVLJQuj5-26" vertex="1">
            <mxGeometry x="260" y="180" width="180" height="80" as="geometry" />
          </mxCell>
        </UserObject>
        <mxCell id="jRqLzhwtPZofuVLJQuj5-33" value="" style="endArrow=blockThin;endFill=1;fontSize=11;edgeStyle=elbowEdgeStyle;elbow=vertical;rounded=0;" parent="jRqLzhwtPZofuVLJQuj5-26" source="jRqLzhwtPZofuVLJQuj5-28" target="jRqLzhwtPZofuVLJQuj5-34" edge="1">
          <mxGeometry relative="1" as="geometry" />
        </mxCell>
        <UserObject label="buyer / seller info" name="Alison Donovan" position="System Admin" location="Office 3" email="me@example.com" placeholders="1" link="https://www.draw.io" id="jRqLzhwtPZofuVLJQuj5-34">
          <mxCell style="label;image=https://cdn3.iconfinder.com/data/icons/user-avatars-1/512/users-2-128.png;whiteSpace=wrap;html=1;rounded=0;glass=0;" parent="jRqLzhwtPZofuVLJQuj5-26" vertex="1">
            <mxGeometry x="490" y="180" width="180" height="80" as="geometry" />
          </mxCell>
        </UserObject>
        <UserObject label="others" name="Alison Donovan" position="System Admin" location="Office 3" email="me@example.com" placeholders="1" link="https://www.draw.io" id="jRqLzhwtPZofuVLJQuj5-35">
          <mxCell style="label;image=https://cdn3.iconfinder.com/data/icons/user-avatars-1/512/users-2-128.png;whiteSpace=wrap;html=1;rounded=0;glass=0;movable=1;resizable=1;rotatable=1;deletable=1;editable=1;locked=0;connectable=1;" parent="jRqLzhwtPZofuVLJQuj5-26" vertex="1">
            <mxGeometry x="720" y="180" width="180" height="80" as="geometry" />
          </mxCell>
        </UserObject>
        <mxCell id="jRqLzhwtPZofuVLJQuj5-36" value="" style="rounded=1;whiteSpace=wrap;html=1;strokeColor=none;" parent="jRqLzhwtPZofuVLJQuj5-26" vertex="1">
          <mxGeometry x="50" y="200" width="40" height="50" as="geometry" />
        </mxCell>
        <mxCell id="jRqLzhwtPZofuVLJQuj5-37" value="" style="rounded=1;whiteSpace=wrap;html=1;strokeColor=none;" parent="jRqLzhwtPZofuVLJQuj5-26" vertex="1">
          <mxGeometry x="270" y="200" width="40" height="50" as="geometry" />
        </mxCell>
        <mxCell id="jRqLzhwtPZofuVLJQuj5-38" value="" style="rounded=1;whiteSpace=wrap;html=1;strokeColor=none;" parent="jRqLzhwtPZofuVLJQuj5-26" vertex="1">
          <mxGeometry x="500" y="195" width="40" height="50" as="geometry" />
        </mxCell>
        <mxCell id="jRqLzhwtPZofuVLJQuj5-39" value="" style="rounded=1;whiteSpace=wrap;html=1;strokeColor=none;" parent="jRqLzhwtPZofuVLJQuj5-26" vertex="1">
          <mxGeometry x="730" y="200" width="40" height="50" as="geometry" />
        </mxCell>
        <mxCell id="jRqLzhwtPZofuVLJQuj5-40" value="" style="rounded=1;whiteSpace=wrap;html=1;strokeColor=none;" parent="jRqLzhwtPZofuVLJQuj5-26" vertex="1">
          <mxGeometry x="380" y="60" width="40" height="50" as="geometry" />
        </mxCell>
        <mxCell id="jRqLzhwtPZofuVLJQuj5-55" value="&lt;h1&gt;导出为NPM包&lt;/h1&gt;&lt;p&gt;整体导出为NPM包，各个模块作为导出模块，接入旧项目中.&lt;/p&gt;" style="text;html=1;strokeColor=#6c8ebf;fillColor=#dae8fc;spacing=5;spacingTop=-20;whiteSpace=wrap;overflow=hidden;rounded=0;" parent="jRqLzhwtPZofuVLJQuj5-26" vertex="1">
          <mxGeometry x="751" y="30" width="190" height="120" as="geometry" />
        </mxCell>
        <mxCell id="jRqLzhwtPZofuVLJQuj5-56" value="&lt;h1&gt;阶段1&lt;/h1&gt;&lt;p&gt;以Order detail页面为例，当整个页面所有模块没有重构完成之前采用该模式&lt;/p&gt;" style="text;html=1;strokeColor=#82b366;fillColor=#d5e8d4;spacing=5;spacingTop=-20;whiteSpace=wrap;overflow=hidden;rounded=0;" parent="1" vertex="1">
          <mxGeometry x="-200" y="80" width="160" height="120" as="geometry" />
        </mxCell>
        <mxCell id="jRqLzhwtPZofuVLJQuj5-117" style="edgeStyle=orthogonalEdgeStyle;rounded=0;orthogonalLoop=1;jettySize=auto;html=1;entryX=0.44;entryY=1.077;entryDx=0;entryDy=0;entryPerimeter=0;strokeWidth=8;strokeColor=#FF9999;" parent="1" source="jRqLzhwtPZofuVLJQuj5-30" target="jRqLzhwtPZofuVLJQuj5-105" edge="1">
          <mxGeometry relative="1" as="geometry" />
        </mxCell>
        <mxCell id="jRqLzhwtPZofuVLJQuj5-118" style="edgeStyle=orthogonalEdgeStyle;rounded=0;orthogonalLoop=1;jettySize=auto;html=1;exitX=0.5;exitY=0;exitDx=0;exitDy=0;entryX=0.44;entryY=1.03;entryDx=0;entryDy=0;entryPerimeter=0;strokeWidth=8;strokeColor=#FF9999;" parent="1" source="jRqLzhwtPZofuVLJQuj5-32" target="jRqLzhwtPZofuVLJQuj5-107" edge="1">
          <mxGeometry relative="1" as="geometry" />
        </mxCell>
        <mxCell id="jRqLzhwtPZofuVLJQuj5-119" style="edgeStyle=orthogonalEdgeStyle;rounded=0;orthogonalLoop=1;jettySize=auto;html=1;entryX=0.447;entryY=1.046;entryDx=0;entryDy=0;entryPerimeter=0;strokeWidth=8;strokeColor=#FF9999;" parent="1" source="jRqLzhwtPZofuVLJQuj5-34" target="jRqLzhwtPZofuVLJQuj5-109" edge="1">
          <mxGeometry relative="1" as="geometry" />
        </mxCell>
        <mxCell id="jRqLzhwtPZofuVLJQuj5-121" value="cs portal (vue版本)" style="swimlane;html=1;startSize=20;horizontal=1;containerType=tree;glass=0;fillColor=#fff2cc;strokeColor=#d6b656;" parent="1" vertex="1">
          <mxGeometry x="-30" y="850" width="1120" height="330" as="geometry" />
        </mxCell>
        <mxCell id="jRqLzhwtPZofuVLJQuj5-122" style="edgeStyle=orthogonalEdgeStyle;rounded=0;orthogonalLoop=1;jettySize=auto;html=1;exitX=0.5;exitY=1;exitDx=0;exitDy=0;entryX=0.5;entryY=0;entryDx=0;entryDy=0;dashed=1;dashPattern=8 8;" parent="jRqLzhwtPZofuVLJQuj5-121" source="jRqLzhwtPZofuVLJQuj5-123" edge="1">
          <mxGeometry relative="1" as="geometry">
            <mxPoint x="890" y="190" as="targetPoint" />
          </mxGeometry>
        </mxCell>
        <UserObject label="order detail 页面" name="Tessa Miller" position="CFO" location="Office 1" email="me@example.com" placeholders="1" link="https://www.draw.io" id="jRqLzhwtPZofuVLJQuj5-123">
          <mxCell style="label;image=https://cdn3.iconfinder.com/data/icons/user-avatars-1/512/users-3-128.png;whiteSpace=wrap;html=1;rounded=0;glass=0;treeMoving=1;treeFolding=1;dashed=1;dashPattern=8 8;" parent="jRqLzhwtPZofuVLJQuj5-121" vertex="1">
            <mxGeometry x="454" y="50" width="180" height="90" as="geometry" />
          </mxCell>
        </UserObject>
        <mxCell id="jRqLzhwtPZofuVLJQuj5-124" value="" style="endArrow=blockThin;endFill=1;fontSize=11;edgeStyle=elbowEdgeStyle;elbow=vertical;rounded=0;dashed=1;dashPattern=8 8;" parent="jRqLzhwtPZofuVLJQuj5-121" source="jRqLzhwtPZofuVLJQuj5-123" target="jRqLzhwtPZofuVLJQuj5-125" edge="1">
          <mxGeometry relative="1" as="geometry" />
        </mxCell>
        <UserObject label="general info" name="Edward Morrison" position="Brand Manager" location="Office 2" email="me@example.com" placeholders="1" link="https://www.draw.io" id="jRqLzhwtPZofuVLJQuj5-125">
          <mxCell style="label;image=https://cdn3.iconfinder.com/data/icons/user-avatars-1/512/users-10-3-128.png;whiteSpace=wrap;html=1;rounded=0;glass=0;treeFolding=1;treeMoving=1;dashed=1;dashPattern=8 8;" parent="jRqLzhwtPZofuVLJQuj5-121" vertex="1">
            <mxGeometry x="120" y="190" width="180" height="80" as="geometry" />
          </mxCell>
        </UserObject>
        <mxCell id="jRqLzhwtPZofuVLJQuj5-126" value="" style="endArrow=blockThin;endFill=1;fontSize=11;edgeStyle=elbowEdgeStyle;elbow=vertical;rounded=0;dashed=1;dashPattern=8 8;" parent="jRqLzhwtPZofuVLJQuj5-121" source="jRqLzhwtPZofuVLJQuj5-123" target="jRqLzhwtPZofuVLJQuj5-127" edge="1">
          <mxGeometry relative="1" as="geometry" />
        </mxCell>
        <UserObject label="time line" name="Evan Valet" position="HR Director" location="Office 4" email="me@example.com" placeholders="1" link="https://www.draw.io" id="jRqLzhwtPZofuVLJQuj5-127">
          <mxCell style="label;image=https://cdn3.iconfinder.com/data/icons/user-avatars-1/512/users-9-2-128.png;whiteSpace=wrap;html=1;rounded=0;glass=0;treeFolding=1;treeMoving=1;dashed=1;dashPattern=8 8;" parent="jRqLzhwtPZofuVLJQuj5-121" vertex="1">
            <mxGeometry x="340" y="190" width="180" height="80" as="geometry" />
          </mxCell>
        </UserObject>
        <mxCell id="jRqLzhwtPZofuVLJQuj5-128" value="" style="endArrow=blockThin;endFill=1;fontSize=11;edgeStyle=elbowEdgeStyle;elbow=vertical;rounded=0;dashed=1;dashPattern=8 8;" parent="jRqLzhwtPZofuVLJQuj5-121" source="jRqLzhwtPZofuVLJQuj5-123" target="jRqLzhwtPZofuVLJQuj5-129" edge="1">
          <mxGeometry relative="1" as="geometry" />
        </mxCell>
        <UserObject label="buyer / seller info" name="Alison Donovan" position="System Admin" location="Office 3" email="me@example.com" placeholders="1" link="https://www.draw.io" id="jRqLzhwtPZofuVLJQuj5-129">
          <mxCell style="label;image=https://cdn3.iconfinder.com/data/icons/user-avatars-1/512/users-2-128.png;whiteSpace=wrap;html=1;rounded=0;glass=0;dashed=1;dashPattern=8 8;" parent="jRqLzhwtPZofuVLJQuj5-121" vertex="1">
            <mxGeometry x="570" y="190" width="180" height="80" as="geometry" />
          </mxCell>
        </UserObject>
        <mxCell id="jRqLzhwtPZofuVLJQuj5-130" value="" style="rounded=1;whiteSpace=wrap;html=1;strokeColor=none;dashed=1;dashPattern=8 8;" parent="jRqLzhwtPZofuVLJQuj5-121" vertex="1">
          <mxGeometry x="130" y="210" width="40" height="50" as="geometry" />
        </mxCell>
        <mxCell id="jRqLzhwtPZofuVLJQuj5-131" value="" style="rounded=1;whiteSpace=wrap;html=1;strokeColor=none;dashed=1;dashPattern=8 8;" parent="jRqLzhwtPZofuVLJQuj5-121" vertex="1">
          <mxGeometry x="350" y="210" width="40" height="50" as="geometry" />
        </mxCell>
        <mxCell id="jRqLzhwtPZofuVLJQuj5-132" value="" style="rounded=1;whiteSpace=wrap;html=1;strokeColor=none;dashed=1;dashPattern=8 8;" parent="jRqLzhwtPZofuVLJQuj5-121" vertex="1">
          <mxGeometry x="580" y="205" width="40" height="50" as="geometry" />
        </mxCell>
        <mxCell id="jRqLzhwtPZofuVLJQuj5-133" value="" style="rounded=1;whiteSpace=wrap;html=1;strokeColor=none;dashed=1;dashPattern=8 8;" parent="jRqLzhwtPZofuVLJQuj5-121" vertex="1">
          <mxGeometry x="810" y="210" width="40" height="50" as="geometry" />
        </mxCell>
        <mxCell id="jRqLzhwtPZofuVLJQuj5-134" value="" style="rounded=1;whiteSpace=wrap;html=1;strokeColor=none;dashed=1;dashPattern=8 8;" parent="jRqLzhwtPZofuVLJQuj5-121" vertex="1">
          <mxGeometry x="460" y="70" width="40" height="50" as="geometry" />
        </mxCell>
        <UserObject label="others" name="Alison Donovan" position="System Admin" location="Office 3" email="me@example.com" placeholders="1" link="https://www.draw.io" id="jRqLzhwtPZofuVLJQuj5-135">
          <mxCell style="label;image=https://cdn3.iconfinder.com/data/icons/user-avatars-1/512/users-2-128.png;whiteSpace=wrap;html=1;rounded=0;glass=0;movable=1;resizable=1;rotatable=1;deletable=1;editable=1;locked=0;connectable=1;dashed=1;dashPattern=8 8;" parent="jRqLzhwtPZofuVLJQuj5-121" vertex="1">
            <mxGeometry x="800" y="190" width="180" height="80" as="geometry" />
          </mxCell>
        </UserObject>
        <mxCell id="jRqLzhwtPZofuVLJQuj5-136" value="" style="rounded=1;whiteSpace=wrap;html=1;strokeColor=none;dashed=1;dashPattern=8 8;" parent="jRqLzhwtPZofuVLJQuj5-121" vertex="1">
          <mxGeometry x="810" y="205" width="40" height="50" as="geometry" />
        </mxCell>
        <mxCell id="jRqLzhwtPZofuVLJQuj5-174" value="&lt;h1&gt;路由替换&lt;/h1&gt;&lt;p&gt;将整个页面打包成一个Npm 包导出，放入当前Vue项目的路由中&lt;/p&gt;" style="text;html=1;strokeColor=#6c8ebf;fillColor=#dae8fc;spacing=5;spacingTop=-20;whiteSpace=wrap;overflow=hidden;rounded=0;" parent="jRqLzhwtPZofuVLJQuj5-121" vertex="1">
          <mxGeometry x="550" y="210" width="190" height="120" as="geometry" />
        </mxCell>
        <mxCell id="jRqLzhwtPZofuVLJQuj5-153" value="&lt;h1&gt;阶段2&lt;/h1&gt;&lt;p&gt;以Order detail页面为例，当整个页面所有模块重构完成后，&lt;span style=&quot;background-color: initial;&quot;&gt;将整个页面打包成一个Npm 包导出，放入当前Vue项目的路由中&lt;/span&gt;&lt;/p&gt;" style="text;html=1;strokeColor=#82b366;fillColor=#d5e8d4;spacing=5;spacingTop=-20;whiteSpace=wrap;overflow=hidden;rounded=0;" parent="1" vertex="1">
          <mxGeometry x="-194.5" y="850" width="160" height="130" as="geometry" />
        </mxCell>
        <mxCell id="jRqLzhwtPZofuVLJQuj5-157" value="cs portal (react版本)" style="swimlane;html=1;startSize=20;horizontal=1;containerType=tree;glass=0;fillColor=#f8cecc;strokeColor=#b85450;" parent="1" vertex="1">
          <mxGeometry x="-30" y="1200" width="1120" height="320" as="geometry" />
        </mxCell>
        <mxCell id="jRqLzhwtPZofuVLJQuj5-158" style="edgeStyle=orthogonalEdgeStyle;rounded=0;orthogonalLoop=1;jettySize=auto;html=1;exitX=0.5;exitY=1;exitDx=0;exitDy=0;entryX=0.5;entryY=0;entryDx=0;entryDy=0;" parent="jRqLzhwtPZofuVLJQuj5-157" source="jRqLzhwtPZofuVLJQuj5-159" edge="1">
          <mxGeometry relative="1" as="geometry">
            <mxPoint x="890" y="190" as="targetPoint" />
          </mxGeometry>
        </mxCell>
        <UserObject label="order detail 页面" name="Tessa Miller" position="CFO" location="Office 1" email="me@example.com" placeholders="1" link="https://www.draw.io" id="jRqLzhwtPZofuVLJQuj5-159">
          <mxCell style="label;image=https://cdn3.iconfinder.com/data/icons/user-avatars-1/512/users-3-128.png;whiteSpace=wrap;html=1;rounded=0;glass=0;treeMoving=1;treeFolding=1;" parent="jRqLzhwtPZofuVLJQuj5-157" vertex="1">
            <mxGeometry x="454" y="50" width="180" height="90" as="geometry" />
          </mxCell>
        </UserObject>
        <mxCell id="jRqLzhwtPZofuVLJQuj5-160" value="" style="endArrow=blockThin;endFill=1;fontSize=11;edgeStyle=elbowEdgeStyle;elbow=vertical;rounded=0;" parent="jRqLzhwtPZofuVLJQuj5-157" source="jRqLzhwtPZofuVLJQuj5-159" target="jRqLzhwtPZofuVLJQuj5-161" edge="1">
          <mxGeometry relative="1" as="geometry" />
        </mxCell>
        <UserObject label="general info" name="Edward Morrison" position="Brand Manager" location="Office 2" email="me@example.com" placeholders="1" link="https://www.draw.io" id="jRqLzhwtPZofuVLJQuj5-161">
          <mxCell style="label;image=https://cdn3.iconfinder.com/data/icons/user-avatars-1/512/users-10-3-128.png;whiteSpace=wrap;html=1;rounded=0;glass=0;treeFolding=1;treeMoving=1;" parent="jRqLzhwtPZofuVLJQuj5-157" vertex="1">
            <mxGeometry x="120" y="190" width="180" height="80" as="geometry" />
          </mxCell>
        </UserObject>
        <mxCell id="jRqLzhwtPZofuVLJQuj5-162" value="" style="endArrow=blockThin;endFill=1;fontSize=11;edgeStyle=elbowEdgeStyle;elbow=vertical;rounded=0;" parent="jRqLzhwtPZofuVLJQuj5-157" source="jRqLzhwtPZofuVLJQuj5-159" target="jRqLzhwtPZofuVLJQuj5-163" edge="1">
          <mxGeometry relative="1" as="geometry" />
        </mxCell>
        <UserObject label="time line" name="Evan Valet" position="HR Director" location="Office 4" email="me@example.com" placeholders="1" link="https://www.draw.io" id="jRqLzhwtPZofuVLJQuj5-163">
          <mxCell style="label;image=https://cdn3.iconfinder.com/data/icons/user-avatars-1/512/users-9-2-128.png;whiteSpace=wrap;html=1;rounded=0;glass=0;treeFolding=1;treeMoving=1;" parent="jRqLzhwtPZofuVLJQuj5-157" vertex="1">
            <mxGeometry x="340" y="190" width="180" height="80" as="geometry" />
          </mxCell>
        </UserObject>
        <mxCell id="jRqLzhwtPZofuVLJQuj5-164" value="" style="endArrow=blockThin;endFill=1;fontSize=11;edgeStyle=elbowEdgeStyle;elbow=vertical;rounded=0;" parent="jRqLzhwtPZofuVLJQuj5-157" source="jRqLzhwtPZofuVLJQuj5-159" target="jRqLzhwtPZofuVLJQuj5-165" edge="1">
          <mxGeometry relative="1" as="geometry" />
        </mxCell>
        <UserObject label="buyer / seller info" name="Alison Donovan" position="System Admin" location="Office 3" email="me@example.com" placeholders="1" link="https://www.draw.io" id="jRqLzhwtPZofuVLJQuj5-165">
          <mxCell style="label;image=https://cdn3.iconfinder.com/data/icons/user-avatars-1/512/users-2-128.png;whiteSpace=wrap;html=1;rounded=0;glass=0;" parent="jRqLzhwtPZofuVLJQuj5-157" vertex="1">
            <mxGeometry x="570" y="190" width="180" height="80" as="geometry" />
          </mxCell>
        </UserObject>
        <mxCell id="jRqLzhwtPZofuVLJQuj5-166" value="" style="rounded=1;whiteSpace=wrap;html=1;strokeColor=none;" parent="jRqLzhwtPZofuVLJQuj5-157" vertex="1">
          <mxGeometry x="130" y="210" width="40" height="50" as="geometry" />
        </mxCell>
        <mxCell id="jRqLzhwtPZofuVLJQuj5-167" value="" style="rounded=1;whiteSpace=wrap;html=1;strokeColor=none;" parent="jRqLzhwtPZofuVLJQuj5-157" vertex="1">
          <mxGeometry x="350" y="210" width="40" height="50" as="geometry" />
        </mxCell>
        <mxCell id="jRqLzhwtPZofuVLJQuj5-168" value="" style="rounded=1;whiteSpace=wrap;html=1;strokeColor=none;" parent="jRqLzhwtPZofuVLJQuj5-157" vertex="1">
          <mxGeometry x="580" y="205" width="40" height="50" as="geometry" />
        </mxCell>
        <mxCell id="jRqLzhwtPZofuVLJQuj5-169" value="" style="rounded=1;whiteSpace=wrap;html=1;strokeColor=none;" parent="jRqLzhwtPZofuVLJQuj5-157" vertex="1">
          <mxGeometry x="810" y="210" width="40" height="50" as="geometry" />
        </mxCell>
        <mxCell id="jRqLzhwtPZofuVLJQuj5-170" value="" style="rounded=1;whiteSpace=wrap;html=1;strokeColor=none;" parent="jRqLzhwtPZofuVLJQuj5-157" vertex="1">
          <mxGeometry x="460" y="70" width="40" height="50" as="geometry" />
        </mxCell>
        <UserObject label="others" name="Alison Donovan" position="System Admin" location="Office 3" email="me@example.com" placeholders="1" link="https://www.draw.io" id="jRqLzhwtPZofuVLJQuj5-171">
          <mxCell style="label;image=https://cdn3.iconfinder.com/data/icons/user-avatars-1/512/users-2-128.png;whiteSpace=wrap;html=1;rounded=0;glass=0;movable=1;resizable=1;rotatable=1;deletable=1;editable=1;locked=0;connectable=1;" parent="jRqLzhwtPZofuVLJQuj5-157" vertex="1">
            <mxGeometry x="800" y="190" width="180" height="80" as="geometry" />
          </mxCell>
        </UserObject>
        <mxCell id="jRqLzhwtPZofuVLJQuj5-172" value="" style="rounded=1;whiteSpace=wrap;html=1;strokeColor=none;" parent="jRqLzhwtPZofuVLJQuj5-157" vertex="1">
          <mxGeometry x="810" y="205" width="40" height="50" as="geometry" />
        </mxCell>
        <mxCell id="jRqLzhwtPZofuVLJQuj5-173" style="edgeStyle=orthogonalEdgeStyle;rounded=0;orthogonalLoop=1;jettySize=auto;html=1;entryX=0.5;entryY=1;entryDx=0;entryDy=0;strokeColor=#FF9999;strokeWidth=5;" parent="1" source="jRqLzhwtPZofuVLJQuj5-159" target="jRqLzhwtPZofuVLJQuj5-123" edge="1">
          <mxGeometry relative="1" as="geometry" />
        </mxCell>
        <mxCell id="vrXJQvj0mPuBqYjNnszg-1" value="cs portal (vue版本)" style="swimlane;html=1;startSize=20;horizontal=1;containerType=tree;glass=0;fillColor=#fff2cc;strokeColor=#d6b656;" vertex="1" parent="1">
          <mxGeometry x="-30" y="1600" width="1120" height="330" as="geometry" />
        </mxCell>
        <mxCell id="vrXJQvj0mPuBqYjNnszg-2" style="edgeStyle=orthogonalEdgeStyle;rounded=0;orthogonalLoop=1;jettySize=auto;html=1;exitX=0.5;exitY=1;exitDx=0;exitDy=0;entryX=0.5;entryY=0;entryDx=0;entryDy=0;" edge="1" parent="vrXJQvj0mPuBqYjNnszg-1" source="vrXJQvj0mPuBqYjNnszg-3">
          <mxGeometry relative="1" as="geometry">
            <mxPoint x="890" y="190" as="targetPoint" />
          </mxGeometry>
        </mxCell>
        <UserObject label="Vue 路由" name="Tessa Miller" position="CFO" location="Office 1" email="me@example.com" placeholders="1" link="https://www.draw.io" id="vrXJQvj0mPuBqYjNnszg-3">
          <mxCell style="label;image=https://cdn3.iconfinder.com/data/icons/user-avatars-1/512/users-3-128.png;whiteSpace=wrap;html=1;rounded=0;glass=0;treeMoving=1;treeFolding=1;" vertex="1" parent="vrXJQvj0mPuBqYjNnszg-1">
            <mxGeometry x="454" y="50" width="180" height="90" as="geometry" />
          </mxCell>
        </UserObject>
        <mxCell id="vrXJQvj0mPuBqYjNnszg-4" value="" style="endArrow=blockThin;endFill=1;fontSize=11;edgeStyle=elbowEdgeStyle;elbow=vertical;rounded=0;" edge="1" parent="vrXJQvj0mPuBqYjNnszg-1" source="vrXJQvj0mPuBqYjNnszg-3" target="vrXJQvj0mPuBqYjNnszg-5">
          <mxGeometry relative="1" as="geometry" />
        </mxCell>
        <UserObject label="order detail&amp;nbsp;" name="Edward Morrison" position="Brand Manager" location="Office 2" email="me@example.com" placeholders="1" link="https://www.draw.io" id="vrXJQvj0mPuBqYjNnszg-5">
          <mxCell style="label;image=https://cdn3.iconfinder.com/data/icons/user-avatars-1/512/users-10-3-128.png;whiteSpace=wrap;html=1;rounded=0;glass=0;treeFolding=1;treeMoving=1;" vertex="1" parent="vrXJQvj0mPuBqYjNnszg-1">
            <mxGeometry x="120" y="190" width="180" height="80" as="geometry" />
          </mxCell>
        </UserObject>
        <mxCell id="vrXJQvj0mPuBqYjNnszg-6" value="" style="endArrow=blockThin;endFill=1;fontSize=11;edgeStyle=elbowEdgeStyle;elbow=vertical;rounded=0;" edge="1" parent="vrXJQvj0mPuBqYjNnszg-1" source="vrXJQvj0mPuBqYjNnszg-3" target="vrXJQvj0mPuBqYjNnszg-7">
          <mxGeometry relative="1" as="geometry" />
        </mxCell>
        <UserObject label="user detail" name="Evan Valet" position="HR Director" location="Office 4" email="me@example.com" placeholders="1" link="https://www.draw.io" id="vrXJQvj0mPuBqYjNnszg-7">
          <mxCell style="label;image=https://cdn3.iconfinder.com/data/icons/user-avatars-1/512/users-9-2-128.png;whiteSpace=wrap;html=1;rounded=0;glass=0;treeFolding=1;treeMoving=1;" vertex="1" parent="vrXJQvj0mPuBqYjNnszg-1">
            <mxGeometry x="340" y="190" width="180" height="80" as="geometry" />
          </mxCell>
        </UserObject>
        <mxCell id="vrXJQvj0mPuBqYjNnszg-8" value="" style="endArrow=blockThin;endFill=1;fontSize=11;edgeStyle=elbowEdgeStyle;elbow=vertical;rounded=0;" edge="1" parent="vrXJQvj0mPuBqYjNnszg-1" source="vrXJQvj0mPuBqYjNnszg-3" target="vrXJQvj0mPuBqYjNnszg-9">
          <mxGeometry relative="1" as="geometry" />
        </mxCell>
        <UserObject label="&amp;nbsp;product detail" name="Alison Donovan" position="System Admin" location="Office 3" email="me@example.com" placeholders="1" link="https://www.draw.io" id="vrXJQvj0mPuBqYjNnszg-9">
          <mxCell style="label;image=https://cdn3.iconfinder.com/data/icons/user-avatars-1/512/users-2-128.png;whiteSpace=wrap;html=1;rounded=0;glass=0;" vertex="1" parent="vrXJQvj0mPuBqYjNnszg-1">
            <mxGeometry x="570" y="190" width="180" height="80" as="geometry" />
          </mxCell>
        </UserObject>
        <mxCell id="vrXJQvj0mPuBqYjNnszg-10" value="" style="rounded=1;whiteSpace=wrap;html=1;strokeColor=none;" vertex="1" parent="vrXJQvj0mPuBqYjNnszg-1">
          <mxGeometry x="130" y="210" width="40" height="50" as="geometry" />
        </mxCell>
        <mxCell id="vrXJQvj0mPuBqYjNnszg-11" value="" style="rounded=1;whiteSpace=wrap;html=1;strokeColor=none;" vertex="1" parent="vrXJQvj0mPuBqYjNnszg-1">
          <mxGeometry x="350" y="210" width="40" height="50" as="geometry" />
        </mxCell>
        <mxCell id="vrXJQvj0mPuBqYjNnszg-12" value="" style="rounded=1;whiteSpace=wrap;html=1;strokeColor=none;" vertex="1" parent="vrXJQvj0mPuBqYjNnszg-1">
          <mxGeometry x="580" y="205" width="40" height="50" as="geometry" />
        </mxCell>
        <mxCell id="vrXJQvj0mPuBqYjNnszg-13" value="" style="rounded=1;whiteSpace=wrap;html=1;strokeColor=none;" vertex="1" parent="vrXJQvj0mPuBqYjNnszg-1">
          <mxGeometry x="810" y="210" width="40" height="50" as="geometry" />
        </mxCell>
        <mxCell id="vrXJQvj0mPuBqYjNnszg-14" value="" style="rounded=1;whiteSpace=wrap;html=1;strokeColor=none;" vertex="1" parent="vrXJQvj0mPuBqYjNnszg-1">
          <mxGeometry x="460" y="70" width="40" height="50" as="geometry" />
        </mxCell>
        <UserObject label="others" name="Alison Donovan" position="System Admin" location="Office 3" email="me@example.com" placeholders="1" link="https://www.draw.io" id="vrXJQvj0mPuBqYjNnszg-15">
          <mxCell style="label;image=https://cdn3.iconfinder.com/data/icons/user-avatars-1/512/users-2-128.png;whiteSpace=wrap;html=1;rounded=0;glass=0;movable=1;resizable=1;rotatable=1;deletable=1;editable=1;locked=0;connectable=1;" vertex="1" parent="vrXJQvj0mPuBqYjNnszg-1">
            <mxGeometry x="800" y="190" width="180" height="80" as="geometry" />
          </mxCell>
        </UserObject>
        <mxCell id="vrXJQvj0mPuBqYjNnszg-16" value="" style="rounded=1;whiteSpace=wrap;html=1;strokeColor=none;" vertex="1" parent="vrXJQvj0mPuBqYjNnszg-1">
          <mxGeometry x="810" y="205" width="40" height="50" as="geometry" />
        </mxCell>
        <mxCell id="vrXJQvj0mPuBqYjNnszg-18" value="&lt;h1&gt;阶段3&lt;/h1&gt;&lt;p&gt;当所有项目均重构完成之后，直接用React项目替换Vue项目。&lt;/p&gt;" style="text;html=1;strokeColor=#82b366;fillColor=#d5e8d4;spacing=5;spacingTop=-20;whiteSpace=wrap;overflow=hidden;rounded=0;" vertex="1" parent="1">
          <mxGeometry x="-194.5" y="1600" width="160" height="130" as="geometry" />
        </mxCell>
        <mxCell id="vrXJQvj0mPuBqYjNnszg-19" value="cs portal (react版本)" style="swimlane;html=1;startSize=20;horizontal=1;containerType=tree;glass=0;fillColor=#f8cecc;strokeColor=#b85450;" vertex="1" parent="1">
          <mxGeometry x="-30" y="2016" width="1120" height="320" as="geometry" />
        </mxCell>
        <mxCell id="vrXJQvj0mPuBqYjNnszg-20" style="edgeStyle=orthogonalEdgeStyle;rounded=0;orthogonalLoop=1;jettySize=auto;html=1;exitX=0.5;exitY=1;exitDx=0;exitDy=0;entryX=0.5;entryY=0;entryDx=0;entryDy=0;" edge="1" parent="vrXJQvj0mPuBqYjNnszg-19" source="vrXJQvj0mPuBqYjNnszg-21">
          <mxGeometry relative="1" as="geometry">
            <mxPoint x="890" y="190" as="targetPoint" />
          </mxGeometry>
        </mxCell>
        <UserObject label="React 路由" name="Tessa Miller" position="CFO" location="Office 1" email="me@example.com" placeholders="1" link="https://www.draw.io" id="vrXJQvj0mPuBqYjNnszg-21">
          <mxCell style="label;image=https://cdn3.iconfinder.com/data/icons/user-avatars-1/512/users-3-128.png;whiteSpace=wrap;html=1;rounded=0;glass=0;treeMoving=1;treeFolding=1;" vertex="1" parent="vrXJQvj0mPuBqYjNnszg-19">
            <mxGeometry x="454" y="50" width="180" height="90" as="geometry" />
          </mxCell>
        </UserObject>
        <mxCell id="vrXJQvj0mPuBqYjNnszg-22" value="" style="endArrow=blockThin;endFill=1;fontSize=11;edgeStyle=elbowEdgeStyle;elbow=vertical;rounded=0;" edge="1" parent="vrXJQvj0mPuBqYjNnszg-19" source="vrXJQvj0mPuBqYjNnszg-21" target="vrXJQvj0mPuBqYjNnszg-23">
          <mxGeometry relative="1" as="geometry" />
        </mxCell>
        <UserObject label="order detail&amp;nbsp;" name="Edward Morrison" position="Brand Manager" location="Office 2" email="me@example.com" placeholders="1" link="https://www.draw.io" id="vrXJQvj0mPuBqYjNnszg-23">
          <mxCell style="label;image=https://cdn3.iconfinder.com/data/icons/user-avatars-1/512/users-10-3-128.png;whiteSpace=wrap;html=1;rounded=0;glass=0;treeFolding=1;treeMoving=1;" vertex="1" parent="vrXJQvj0mPuBqYjNnszg-19">
            <mxGeometry x="120" y="190" width="180" height="80" as="geometry" />
          </mxCell>
        </UserObject>
        <mxCell id="vrXJQvj0mPuBqYjNnszg-24" value="" style="endArrow=blockThin;endFill=1;fontSize=11;edgeStyle=elbowEdgeStyle;elbow=vertical;rounded=0;" edge="1" parent="vrXJQvj0mPuBqYjNnszg-19" source="vrXJQvj0mPuBqYjNnszg-21" target="vrXJQvj0mPuBqYjNnszg-25">
          <mxGeometry relative="1" as="geometry" />
        </mxCell>
        <UserObject label="user detail" name="Evan Valet" position="HR Director" location="Office 4" email="me@example.com" placeholders="1" link="https://www.draw.io" id="vrXJQvj0mPuBqYjNnszg-25">
          <mxCell style="label;image=https://cdn3.iconfinder.com/data/icons/user-avatars-1/512/users-9-2-128.png;whiteSpace=wrap;html=1;rounded=0;glass=0;treeFolding=1;treeMoving=1;" vertex="1" parent="vrXJQvj0mPuBqYjNnszg-19">
            <mxGeometry x="340" y="190" width="180" height="80" as="geometry" />
          </mxCell>
        </UserObject>
        <mxCell id="vrXJQvj0mPuBqYjNnszg-26" value="" style="endArrow=blockThin;endFill=1;fontSize=11;edgeStyle=elbowEdgeStyle;elbow=vertical;rounded=0;" edge="1" parent="vrXJQvj0mPuBqYjNnszg-19" source="vrXJQvj0mPuBqYjNnszg-21" target="vrXJQvj0mPuBqYjNnszg-27">
          <mxGeometry relative="1" as="geometry" />
        </mxCell>
        <UserObject label="&amp;nbsp;product detail" name="Alison Donovan" position="System Admin" location="Office 3" email="me@example.com" placeholders="1" link="https://www.draw.io" id="vrXJQvj0mPuBqYjNnszg-27">
          <mxCell style="label;image=https://cdn3.iconfinder.com/data/icons/user-avatars-1/512/users-2-128.png;whiteSpace=wrap;html=1;rounded=0;glass=0;" vertex="1" parent="vrXJQvj0mPuBqYjNnszg-19">
            <mxGeometry x="570" y="190" width="180" height="80" as="geometry" />
          </mxCell>
        </UserObject>
        <mxCell id="vrXJQvj0mPuBqYjNnszg-28" value="" style="rounded=1;whiteSpace=wrap;html=1;strokeColor=none;" vertex="1" parent="vrXJQvj0mPuBqYjNnszg-19">
          <mxGeometry x="130" y="210" width="40" height="50" as="geometry" />
        </mxCell>
        <mxCell id="vrXJQvj0mPuBqYjNnszg-29" value="" style="rounded=1;whiteSpace=wrap;html=1;strokeColor=none;" vertex="1" parent="vrXJQvj0mPuBqYjNnszg-19">
          <mxGeometry x="350" y="210" width="40" height="50" as="geometry" />
        </mxCell>
        <mxCell id="vrXJQvj0mPuBqYjNnszg-30" value="" style="rounded=1;whiteSpace=wrap;html=1;strokeColor=none;" vertex="1" parent="vrXJQvj0mPuBqYjNnszg-19">
          <mxGeometry x="580" y="205" width="40" height="50" as="geometry" />
        </mxCell>
        <mxCell id="vrXJQvj0mPuBqYjNnszg-31" value="" style="rounded=1;whiteSpace=wrap;html=1;strokeColor=none;" vertex="1" parent="vrXJQvj0mPuBqYjNnszg-19">
          <mxGeometry x="810" y="210" width="40" height="50" as="geometry" />
        </mxCell>
        <mxCell id="vrXJQvj0mPuBqYjNnszg-32" value="" style="rounded=1;whiteSpace=wrap;html=1;strokeColor=none;" vertex="1" parent="vrXJQvj0mPuBqYjNnszg-19">
          <mxGeometry x="460" y="70" width="40" height="50" as="geometry" />
        </mxCell>
        <UserObject label="others" name="Alison Donovan" position="System Admin" location="Office 3" email="me@example.com" placeholders="1" link="https://www.draw.io" id="vrXJQvj0mPuBqYjNnszg-33">
          <mxCell style="label;image=https://cdn3.iconfinder.com/data/icons/user-avatars-1/512/users-2-128.png;whiteSpace=wrap;html=1;rounded=0;glass=0;movable=1;resizable=1;rotatable=1;deletable=1;editable=1;locked=0;connectable=1;" vertex="1" parent="vrXJQvj0mPuBqYjNnszg-19">
            <mxGeometry x="800" y="190" width="180" height="80" as="geometry" />
          </mxCell>
        </UserObject>
        <mxCell id="vrXJQvj0mPuBqYjNnszg-34" value="" style="rounded=1;whiteSpace=wrap;html=1;strokeColor=none;" vertex="1" parent="vrXJQvj0mPuBqYjNnszg-19">
          <mxGeometry x="810" y="205" width="40" height="50" as="geometry" />
        </mxCell>
        <mxCell id="vrXJQvj0mPuBqYjNnszg-37" value="&lt;h1&gt;项目替换&lt;/h1&gt;&lt;p&gt;直接用新项目替换旧项目&lt;/p&gt;" style="text;html=1;strokeColor=#6c8ebf;fillColor=#dae8fc;spacing=5;spacingTop=-20;whiteSpace=wrap;overflow=hidden;rounded=0;" vertex="1" parent="1">
          <mxGeometry x="540" y="1896" width="190" height="120" as="geometry" />
        </mxCell>
        <mxCell id="vrXJQvj0mPuBqYjNnszg-38" style="edgeStyle=orthogonalEdgeStyle;rounded=0;orthogonalLoop=1;jettySize=auto;html=1;entryX=0.5;entryY=1;entryDx=0;entryDy=0;strokeColor=#FF9999;strokeWidth=5;" edge="1" parent="1">
          <mxGeometry relative="1" as="geometry">
            <mxPoint x="520" y="2010" as="sourcePoint" />
            <mxPoint x="520" y="1930" as="targetPoint" />
            <Array as="points">
              <mxPoint x="520" y="2016" />
            </Array>
          </mxGeometry>
        </mxCell>
      </root>
    </mxGraphModel>
  </diagram>
</mxfile>
